<svg xmlns="http://www.w3.org/2000/svg" viewBox="0 0 4607.3 4469.46"><defs><style>.cls-1,.cls-3{opacity:0.22;}.cls-2,.cls-3{fill:#fff;}</style></defs><g id="Layer_2" data-name="Layer 2"><g id="_ÎÓÈ_1" data-name="—ÎÓÈ_1"><g class="cls-1"><path class="cls-2" d="M4047.54,2766a117.65,117.65,0,1,1,40.88-22.93A117.23,117.23,0,0,1,4047.54,2766Zm-66-204.56a96.93,96.93,0,1,0,122,62.5A97,97,0,0,0,3981.57,2561.48Z"/></g><g class="cls-1"><path class="cls-2" d="M802.18,2965.75a117.7,117.7,0,1,1,40.87-22.93A117.46,117.46,0,0,1,802.18,2965.75Zm-66-204.57a96.93,96.93,0,1,0,122,62.5A97,97,0,0,0,736.21,2761.18Z"/></g><g class="cls-1"><path class="cls-2" d="M1534.93,3565.45a117.64,117.64,0,1,1,40.87-22.93A117.3,117.3,0,0,1,1534.93,3565.45Zm-66-204.57a96.94,96.94,0,1,0,122,62.51A97,97,0,0,0,1469,3360.88Z"/></g><g class="cls-1"><path class="cls-2" d="M2356.22,2317.39a117.64,117.64,0,1,1,40.87-22.93A117.3,117.3,0,0,1,2356.22,2317.39Zm-66-204.57a96.93,96.93,0,1,0,122,62.51A97.06,97.06,0,0,0,2290.25,2112.82Z"/></g><g class="cls-1"><path class="cls-2" d="M3514.8,1823.82a117.73,117.73,0,1,1,40.87-22.93A117.28,117.28,0,0,1,3514.8,1823.82Zm-66-204.56a96.93,96.93,0,1,0,122,62.5A97,97,0,0,0,3448.83,1619.26Z"/></g><g class="cls-1"><path class="cls-2" d="M3396.76,416.27a117.7,117.7,0,1,1,40.87-22.93A117.28,117.28,0,0,1,3396.76,416.27Zm-66-204.57a96.93,96.93,0,1,0,122,62.51A97,97,0,0,0,3330.79,211.7Z"/></g><g class="cls-1"><path class="cls-2" d="M245,1181.86a117.67,117.67,0,1,1,40.87-22.93A117.3,117.3,0,0,1,245,1181.86ZM179,977.29a96.94,96.94,0,1,0,122,62.51A97,97,0,0,0,179,977.29Z"/></g><g class="cls-1"><path class="cls-2" d="M3612,4359.68a117.62,117.62,0,1,1,40.88-22.93A117.23,117.23,0,0,1,3612,4359.68Zm-66-204.57a96.93,96.93,0,1,0,122,62.51A97,97,0,0,0,3546,4155.11Z"/></g><g class="cls-1"><path class="cls-2" d="M2534.68,3592.29a117.64,117.64,0,1,1,40.87-22.93A117.3,117.3,0,0,1,2534.68,3592.29Zm-66-204.57a96.93,96.93,0,1,0,122,62.51A97.06,97.06,0,0,0,2468.71,3387.72Z"/></g><g class="cls-1"><path class="cls-2" d="M248.37,426.65,147.31,223.75l202.9-101.06,101.06,202.9Zm-72.8-193.43L257.84,398.4,423,316.12,340.74,151Z"/></g><g class="cls-1"><path class="cls-2" d="M1350.84,2881.69l-101.06-202.9,202.9-101.06,101.06,202.9ZM1278,2688.26l82.27,165.18,165.18-82.28L1443.21,2606Z"/></g><g class="cls-1"><path class="cls-2" d="M1594.3,2046.15l-101.06-202.89,202.9-101.06,101.06,202.89Zm-72.8-193.43,82.27,165.18,165.17-82.27-82.27-165.18Z"/></g><g class="cls-1"><path class="cls-2" d="M1068.71,3830.46l219.5-56.59,56.59,219.49L1125.31,4050Zm204.35-30.93-178.68,46.08,46.07,178.68,178.69-46.07Z"/></g><g class="cls-1"><path class="cls-2" d="M3642.91,3757.1l-101.07-202.9,202.9-101.06L3845.8,3656Zm-72.81-193.43,82.27,165.17,165.18-82.27-82.28-165.18Z"/></g><g class="cls-1"><path class="cls-2" d="M3231.37,2627.08l-101.06-202.9,202.89-101.06L3434.27,2526Zm-72.81-193.44,82.28,165.18L3406,2516.55l-82.27-165.18Z"/></g><g class="cls-1"><path class="cls-2" d="M2565.58,1922.43l-101.06-202.9,202.89-101.06,101.07,202.9ZM2492.77,1729l82.28,165.17,165.17-82.27L2658,1646.73Z"/></g><g class="cls-1"><path class="cls-2" d="M3960.41,304l-101.06-202.9L4062.24,0,4163.3,202.9ZM3887.6,110.53l82.27,165.17,165.18-82.27L4052.78,28.25Z"/></g><g class="cls-1"><path class="cls-2" d="M4172.25,1912.63l-216.17-68.19,68.2-216.17,216.17,68.19Zm-189.73-82,176,55.52,55.52-176-176-55.52Z"/></g><g class="cls-1"><path class="cls-2" d="M1239.56,558,1108.67,295.26l293,18ZM1143.8,318.53,1242.15,516,1364,332.08Z"/></g><g class="cls-1"><path class="cls-2" d="M821.61,1842.91,690.72,1580.12l293,18Zm-95.76-239.52,98.35,197.45L946,1616.94Z"/></g><g class="cls-1"><path class="cls-2" d="M1629.6,1429.28,1498.71,1166.5l293,18Zm-95.76-239.51,98.35,197.45L1754,1203.32Z"/></g><g class="cls-1"><path class="cls-2" d="M2460.16,4335.11l-261,134.35,14.17-293.24ZM2221.93,4434l196.14-101-185.49-119.38Z"/></g><g class="cls-1"><path class="cls-2" d="M2199.12,3094.73l-261,134.35,14.17-293.24Zm-238.23,98.91L2157,3092.69l-185.49-119.38Z"/></g><g class="cls-1"><path class="cls-2" d="M435.65,4406.05,304.76,4143.27l293,18Zm-95.76-239.51L438.24,4364l121.82-183.9Z"/></g><g class="cls-1"><path class="cls-2" d="M292.42,2247.64,2.21,2292l106.7-273.5Zm-257.32,18,218.06-33.32L115.28,2060.14Z"/></g><g class="cls-1"><path class="cls-2" d="M4607.3,814.47l-122.49,266.81L4315,841.8Zm-126.41,224.85,92-200.48-219.63,20.54Z"/></g><g class="cls-1"><path class="cls-2" d="M2752.47,818.11,2630,1084.92,2460.16,845.44ZM2626.06,1043l92-200.48L2498.46,863Z"/></g><path class="cls-3" d="M4490.6,2670a10.53,10.53,0,0,0-14.82-1.54l-57.27,46.46-46.46-57.26a10.54,10.54,0,1,0-16.36,13.28l46.46,57.26-57.26,46.46a10.54,10.54,0,1,0,13.28,16.36l57.26-46.46,46.46,57.26a10.53,10.53,0,1,0,16.36-13.27l-46.46-57.27,57.26-46.46A10.54,10.54,0,0,0,4490.6,2670Z"/><path class="cls-3" d="M3162.44,2992.22a10.53,10.53,0,0,0-6.79,13.26l22.63,70.18-70.18,22.64a10.53,10.53,0,1,0,6.46,20l70.19-22.63,22.63,70.18a10.53,10.53,0,1,0,20-6.47l-22.63-70.18,70.18-22.63a10.54,10.54,0,1,0-6.47-20.06l-70.18,22.64L3175.7,2999A10.54,10.54,0,0,0,3162.44,2992.22Z"/><path class="cls-3" d="M4348.09,4208.92a10.54,10.54,0,0,0-14.9-.28l-53.14,51.12-51.13-53.14a10.53,10.53,0,1,0-15.18,14.61l51.12,53.14-53.14,51.13a10.53,10.53,0,0,0,14.61,15.18l53.14-51.12,51.13,53.14a10.53,10.53,0,0,0,15.18-14.61L4294.66,4275l53.14-51.13A10.55,10.55,0,0,0,4348.09,4208.92Z"/><path class="cls-3" d="M2531.65,86.24a10.52,10.52,0,0,0-14.89-.28l-53.14,51.12-51.13-53.14a10.53,10.53,0,1,0-15.18,14.61l51.12,53.14-53.14,51.13A10.53,10.53,0,1,0,2409.9,218L2463,166.88,2514.17,220a10.53,10.53,0,0,0,15.18-14.61l-51.13-53.14,53.15-51.13A10.54,10.54,0,0,0,2531.65,86.24Z"/><path class="cls-3" d="M61.65,3389.74a10.55,10.55,0,0,0-6.8,13.26l22.64,70.19L7.3,3495.82a10.53,10.53,0,1,0,6.47,20L84,3493.24l22.64,70.18a10.53,10.53,0,1,0,20-6.47L104,3486.77l70.18-22.63a10.54,10.54,0,0,0-6.47-20.06l-70.18,22.64-22.63-70.18A10.55,10.55,0,0,0,61.65,3389.74Z"/><path class="cls-3" d="M517.91,1930.28A10.54,10.54,0,0,0,503,1930l-53.14,51.12L398.74,1928a10.53,10.53,0,1,0-15.18,14.61l51.13,53.14-53.14,51.13a10.53,10.53,0,0,0,14.6,15.18l53.14-51.12,51.13,53.14a10.53,10.53,0,0,0,15.18-14.61l-51.12-53.14,53.14-51.13A10.55,10.55,0,0,0,517.91,1930.28Z"/><path class="cls-3" d="M905.55,1100.76a10.53,10.53,0,0,0-14.89-.29l-53.14,51.13-51.13-53.14a10.53,10.53,0,1,0-15.18,14.61l51.12,53.14-53.14,51.12a10.54,10.54,0,0,0,14.61,15.19l53.14-51.13,51.13,53.14a10.53,10.53,0,1,0,15.18-14.61l-51.12-53.14,53.14-51.12A10.54,10.54,0,0,0,905.55,1100.76Z"/></g></g></svg>