<svg xmlns="http://www.w3.org/2000/svg" viewBox="0 0 4607.3 4469.46"><defs><style>.cls-1{fill:#ebf6e6;}.cls-2{fill:#fffbef;}.cls-3{fill:#575756;}.cls-4{fill:#9d9d9c;}.cls-5,.cls-7{opacity:0.22;}.cls-6,.cls-7{fill:#fff;}</style></defs><g id="Layer_2" data-name="Layer 2"><g id="_ÎÓÈ_1" data-name="—ÎÓÈ_1"><path class="cls-1" d="M2146.07,3619.63h-51v79.67h-99.86v-79.67H1847v-78.88l136.51-209.54h111.54v209.54h51Zm-150.85-78.88V3432.47l-68.63,108.28Z"/><path class="cls-1" d="M2310.73,3704.88q-65.59,0-103.84-51.66t-38.25-135.84q0-86.31,39.18-136.24t104.77-49.93q68.77,0,105.43,53.25t36.65,136.11q0,84.45-39.44,134.38T2310.73,3704.88Zm1.06-77q22.85,0,30.54-29.08t7.7-79.54q0-69.31-10.22-90.56t-27.75-21.25q-21.26,0-29.35,28t-8.1,77.15q0,66.66,8.1,91T2311.79,3627.86Z"/><path class="cls-1" d="M2784,3619.63h-51v79.67h-99.86v-79.67H2485v-78.88l136.5-209.54H2733v209.54h51Zm-150.85-78.88V3432.47l-68.64,108.28Z"/><path class="cls-1" d="M1951.88,3911.91h-29l-31.77-51.24a196.13,196.13,0,0,1-12.33-24,80.59,80.59,0,0,1,2.8,19v56.16h-28.89v-116h33.65l27,42.48a163.9,163.9,0,0,1,12.24,22.27,168.23,168.23,0,0,1-2.72-30.42v-34.33h29Z"/><path class="cls-1" d="M2022.24,3913.7q-24.48,0-39.9-16.23t-15.42-43.42q0-26,14.74-43t40.92-16.95q24.21,0,39.47,16t15.25,42.65q0,27.61-15.38,44.27T2022.24,3913.7Zm-.17-26.34q9,0,13-7.86t4-28.76q0-30.25-16.23-30.25-17.51,0-17.51,34.49Q2005.24,3887.37,2022.07,3887.36Z"/><path class="cls-1" d="M2140,3823.71v88.2h-33.73v-88.2h-24v-27.78h81.82v27.78Z"/><path class="cls-1" d="M2290.15,3868.49h-37.82v43.42h-34.66v-116h83.86v27.61h-49.2v18.87h37.82Z"/><path class="cls-1" d="M2361.94,3913.7q-24.46,0-39.89-16.23t-15.42-43.42q0-26,14.74-43t40.91-16.95q24.22,0,39.47,16t15.25,42.65q0,27.61-15.37,44.27T2361.94,3913.7Zm-.17-26.34q9,0,13-7.86t3.95-28.76q0-30.25-16.23-30.25-17.5,0-17.5,34.49Q2345,3887.37,2361.77,3887.36Z"/><path class="cls-1" d="M2526.11,3795.93v76.81q0,21.84-13,31.4t-33.78,9.56q-21.91,0-35.22-9.18t-13.3-29.91v-78.68h36.2v74.52q0,8.33,3.52,12.15t11.23,3.82a18.53,18.53,0,0,0,10.54-2.76c2.75-1.84,4.38-3.92,4.92-6.24s.81-6.86.81-13.6v-67.89Z"/><path class="cls-1" d="M2644.3,3911.91h-29l-31.76-51.24a196.06,196.06,0,0,1-12.34-24,80.67,80.67,0,0,1,2.81,19v56.16h-28.89v-116h33.65l27,42.48a163.71,163.71,0,0,1,12.23,22.27,169.14,169.14,0,0,1-2.72-30.42v-34.33h29Z"/><path class="cls-1" d="M2664.52,3911.91v-116h44.86q29.23,0,43.76,17.33a60.59,60.59,0,0,1,14.53,40.11q0,26-15.59,42.27t-40.49,16.27Zm35.6-26.68h9.26q8.85,0,14.92-8.58t6.07-23.37q0-12.66-5.39-21.83t-15.6-9.18h-9.26Z"/><path class="cls-2" d="M1933.49,3255.45q-35.41,0-57.73-23.48t-22.31-62.83q0-37.63,21.33-62.16t59.2-24.52q35,0,57.11,23.11t22.07,61.72q0,40-22.25,64.06T1933.49,3255.45Zm-.25-38.12q13,0,18.75-11.37t5.72-41.62q0-43.77-23.49-43.77-25.32,0-25.32,49.92Q1908.9,3217.34,1933.24,3217.33Z"/><path class="cls-2" d="M2107.46,3255.45q-35.4,0-57.72-23.48t-22.32-62.83q0-37.63,21.33-62.16t59.21-24.52q35,0,57.11,23.11t22.07,61.72q0,40-22.26,64.06T2107.46,3255.45Zm-.24-38.12q13,0,18.75-11.37t5.72-41.62q0-43.77-23.49-43.77-25.32,0-25.33,49.92Q2082.87,3217.34,2107.22,3217.33Z"/><path class="cls-2" d="M2281.44,3255.45q-35.42,0-57.73-23.48t-22.31-62.83q0-37.63,21.33-62.16t59.2-24.52q35,0,57.11,23.11t22.07,61.72q0,40-22.25,64.06T2281.44,3255.45Zm-.25-38.12q13,0,18.75-11.37t5.72-41.62q0-43.77-23.48-43.77-25.33,0-25.33,49.92Q2256.85,3217.34,2281.19,3217.33Z"/><path class="cls-2" d="M2435.13,3191.88v61h-52.25V3085h71.68q26.79,0,40.75,6.15a49.59,49.59,0,0,1,22.14,18.81,51.23,51.23,0,0,1,8.17,28.4q0,24-16.72,38.73t-44.63,14.75Zm-.74-36h17.22q22.74,0,22.74-16.72,0-15.75-21-15.74h-18.94Z"/><path class="cls-2" d="M2527.47,3204.3l47.82-8.61q6,20.29,31,20.29,19.42,0,19.43-10.33a9.6,9.6,0,0,0-4.49-8.42q-4.5-3-16-5.34-44.15-8.46-56.68-22.11a45.91,45.91,0,0,1-12.54-32.1q0-23.74,18-39.48t51.83-15.74q51.27,0,67.74,41.18l-42.66,12.91q-6.64-16.83-26.93-16.84-16.84,0-16.84,10.45a8.28,8.28,0,0,0,3.81,7.26q3.81,2.58,14.76,4.91,30.12,6.36,42.79,11.27a46,46,0,0,1,21.14,16.77q8.49,11.87,8.48,28,0,25.47-20.65,41.28t-54.23,15.81Q2541.85,3255.45,2527.47,3204.3Z"/><path class="cls-2" d="M2752.35,3085l-14,111.27h-31.11L2694.07,3085ZM2746.57,3208v44.88h-47.46V3208Z"/><circle class="cls-3" cx="1285.95" cy="1455.32" r="528.2"/><circle class="cls-3" cx="3191.54" cy="1455.32" r="528.2"/><path class="cls-4" d="M1562.9,1062.41c-42.84-26.33-92.11-45.88-146.43-58.09a610.66,610.66,0,0,0-131.62-14.45c-23,0-37.06,1.39-37.64,1.45l-40.45,4.1,4.13,40.45,4.16,42.45,40.41-4.11c.12,0,11.19-1,29.41-1a526.07,526.07,0,0,1,113.38,12.43c70.32,15.82,166.22,54.92,223.7,151.33l20.8,34.9,71.55-42.64-20.81-34.91C1661.28,1140.25,1617.35,1095.88,1562.9,1062.41Z"/><path class="cls-4" d="M3599.09,1194.27c-32.21-54-76.15-98.39-130.59-131.86-42.85-26.33-92.12-45.88-146.44-58.09a610.58,610.58,0,0,0-131.61-14.45c-23.06,0-37.06,1.39-37.65,1.45l-40.45,4.1,4.13,40.45,4.16,42.45,40.42-4.11c.11,0,11.19-1,29.4-1a526.07,526.07,0,0,1,113.38,12.43c70.33,15.82,166.22,54.92,223.7,151.33l20.8,34.9,71.55-42.64Z"/><path class="cls-3" d="M2549.63,2375.17c-50-38.15-107.31-63-170.3-73.75-49.57-8.5-102.57-8.29-157.54.6a610.45,610.45,0,0,0-127.53,35.6c-21.39,8.58-33.87,15.09-34.39,15.36l-36,18.87,18.89,36,19.67,37.85,36-18.87c.1,0,10-5.14,26.9-11.92a526.2,526.2,0,0,1,109.86-30.68c71.16-11.5,174.71-10.92,264,57.16L2531.4,2466l50.53-66.22Z"/><g class="cls-5"><path class="cls-6" d="M4047.54,2766a117.65,117.65,0,1,1,40.88-22.93A117.23,117.23,0,0,1,4047.54,2766Zm-66-204.56a96.93,96.93,0,1,0,122,62.5A97,97,0,0,0,3981.57,2561.48Z"/></g><g class="cls-5"><path class="cls-6" d="M1491.17,3194.77a117.64,117.64,0,1,1,40.87-22.93A117.48,117.48,0,0,1,1491.17,3194.77Zm-66-204.57a96.93,96.93,0,1,0,122,62.5A97.05,97.05,0,0,0,1425.2,2990.2Z"/></g><g class="cls-5"><path class="cls-6" d="M3396.76,416.27a117.7,117.7,0,1,1,40.87-22.93A117.28,117.28,0,0,1,3396.76,416.27Zm-66-204.57a96.93,96.93,0,1,0,122,62.51A97,97,0,0,0,3330.79,211.7Z"/></g><g class="cls-5"><path class="cls-6" d="M245,1181.86a117.67,117.67,0,1,1,40.87-22.93A117.3,117.3,0,0,1,245,1181.86ZM179,977.29a96.94,96.94,0,1,0,122,62.51A97,97,0,0,0,179,977.29Z"/></g><g class="cls-5"><path class="cls-6" d="M3612,4359.68a117.62,117.62,0,1,1,40.88-22.93A117.23,117.23,0,0,1,3612,4359.68Zm-66-204.57a96.93,96.93,0,1,0,122,62.51A97,97,0,0,0,3546,4155.11Z"/></g><g class="cls-5"><path class="cls-6" d="M248.37,426.65,147.31,223.75l202.9-101.06,101.06,202.9Zm-72.8-193.43L257.84,398.4,423,316.12,340.74,151Z"/></g><g class="cls-5"><path class="cls-6" d="M634.33,2913.47l-101.06-202.9,202.9-101.06L837.23,2812.4ZM561.53,2720l82.27,165.17L809,2802.94,726.7,2637.76Z"/></g><g class="cls-5"><path class="cls-6" d="M1068.71,3830.46l219.5-56.59,56.59,219.49L1125.31,4050Zm204.35-30.93-178.68,46.08,46.07,178.68,178.69-46.07Z"/></g><g class="cls-5"><path class="cls-6" d="M3642.91,3757.1l-101.07-202.9,202.9-101.06L3845.8,3656Zm-72.81-193.43,82.27,165.17,165.18-82.27-82.28-165.18Z"/></g><g class="cls-5"><path class="cls-6" d="M3960.41,304l-101.06-202.9L4062.24,0,4163.3,202.9ZM3887.6,110.53l82.27,165.17,165.18-82.27L4052.78,28.25Z"/></g><g class="cls-5"><path class="cls-6" d="M4172.25,1912.63l-216.17-68.19,68.2-216.17,216.17,68.19Zm-189.73-82,176,55.52,55.52-176-176-55.52Z"/></g><g class="cls-5"><path class="cls-6" d="M1239.56,558,1108.67,295.26l293,18ZM1143.8,318.53,1242.15,516,1364,332.08Z"/></g><g class="cls-5"><path class="cls-6" d="M2460.16,4335.11l-261,134.35,14.17-293.24ZM2221.93,4434l196.14-101-185.49-119.38Z"/></g><g class="cls-5"><path class="cls-6" d="M435.65,4406.05,304.76,4143.27l293,18Zm-95.76-239.51L438.24,4364l121.82-183.9Z"/></g><g class="cls-5"><path class="cls-6" d="M292.42,2247.64,2.21,2292l106.7-273.5Zm-257.32,18,218.06-33.32L115.28,2060.14Z"/></g><g class="cls-5"><path class="cls-6" d="M4607.3,814.47l-122.49,266.81L4315,841.8Zm-126.41,224.85,92-200.48-219.63,20.54Z"/></g><path class="cls-7" d="M4490.6,2670a10.53,10.53,0,0,0-14.82-1.54l-57.27,46.46-46.46-57.26a10.54,10.54,0,1,0-16.36,13.28l46.46,57.26-57.26,46.46a10.54,10.54,0,1,0,13.28,16.36l57.26-46.46,46.46,57.26a10.53,10.53,0,1,0,16.36-13.27l-46.46-57.27,57.26-46.46A10.54,10.54,0,0,0,4490.6,2670Z"/><path class="cls-7" d="M3162.44,2992.22a10.53,10.53,0,0,0-6.79,13.26l22.63,70.18-70.18,22.64a10.53,10.53,0,1,0,6.46,20l70.19-22.63,22.63,70.18a10.53,10.53,0,1,0,20-6.47l-22.63-70.18,70.18-22.63a10.54,10.54,0,1,0-6.47-20.06l-70.18,22.64L3175.7,2999A10.54,10.54,0,0,0,3162.44,2992.22Z"/><path class="cls-7" d="M4348.09,4208.92a10.54,10.54,0,0,0-14.9-.28l-53.14,51.12-51.13-53.14a10.53,10.53,0,1,0-15.18,14.61l51.12,53.14-53.14,51.13a10.53,10.53,0,0,0,14.61,15.18l53.14-51.12,51.13,53.14a10.53,10.53,0,0,0,15.18-14.61L4294.66,4275l53.14-51.13A10.55,10.55,0,0,0,4348.09,4208.92Z"/><path class="cls-7" d="M2531.65,86.24a10.52,10.52,0,0,0-14.89-.28l-53.14,51.12-51.13-53.14a10.53,10.53,0,1,0-15.18,14.61l51.12,53.14-53.14,51.13A10.53,10.53,0,1,0,2409.9,218L2463,166.88,2514.17,220a10.53,10.53,0,0,0,15.18-14.61l-51.13-53.14,53.15-51.13A10.54,10.54,0,0,0,2531.65,86.24Z"/><path class="cls-7" d="M61.65,3389.74a10.55,10.55,0,0,0-6.8,13.26l22.64,70.19L7.3,3495.82a10.53,10.53,0,1,0,6.47,20L84,3493.24l22.64,70.18a10.53,10.53,0,1,0,20-6.47L104,3486.77l70.18-22.63a10.54,10.54,0,0,0-6.47-20.06l-70.18,22.64-22.63-70.18A10.55,10.55,0,0,0,61.65,3389.74Z"/></g></g></svg>