<svg xmlns="http://www.w3.org/2000/svg" viewBox="0 0 2962 1538.92"><defs><style>.cls-1{fill:#575756;}.cls-2{fill:#9d9d9c;}</style></defs><g id="Layer_2" data-name="Layer 2"><g id="_ÎÓÈ_1" data-name="—ÎÓÈ_1"><circle class="cls-1" cx="528.2" cy="528.2" r="528.2"/><circle class="cls-1" cx="2433.8" cy="528.2" r="528.2"/><path class="cls-2" d="M805.16,135.3C762.32,109,713.05,89.41,658.72,77.2A610.52,610.52,0,0,0,527.11,62.75c-23.06,0-37.06,1.4-37.65,1.46L449,68.31l4.13,40.44,4.17,42.46,40.41-4.12c.11,0,11.19-1,29.4-1a526,526,0,0,1,113.39,12.42c70.32,15.83,166.22,54.92,223.69,151.34L885,344.7l71.55-42.64-20.81-34.91C903.54,213.13,859.61,168.77,805.16,135.3Z"/><path class="cls-2" d="M2841.34,267.15c-32.2-54-76.14-98.38-130.58-131.85-42.85-26.34-92.12-45.89-146.44-58.1A610.6,610.6,0,0,0,2432.7,62.75c-23,0-37.06,1.4-37.64,1.46l-40.45,4.1,4.13,40.44,4.16,42.46,40.42-4.12c.11,0,11.18-1,29.4-1a525.94,525.94,0,0,1,113.38,12.42c70.33,15.83,166.22,54.92,223.7,151.34l20.8,34.89,71.55-42.64Z"/><path class="cls-1" d="M1791.88,1448.05c-50-38.15-107.3-63-170.29-73.75-49.57-8.49-102.57-8.29-157.54.6a610.45,610.45,0,0,0-127.53,35.6c-21.4,8.58-33.88,15.09-34.4,15.36l-36,18.87,18.89,36,19.67,37.85,36-18.87c.1,0,10-5.13,26.9-11.91a525,525,0,0,1,109.86-30.68c71.15-11.5,174.71-10.92,263.95,57.16l32.3,24.64,50.53-66.22Z"/></g></g></svg>